# xmcd
#
# Track frame offsets:
#	150
#	18232
#	38015
#	51507
#	63117
#	79442
#	96837
#	114632
#	132897
#	145727
#	162837
#	178057
#	195395
#	210505
#
# Disc length: 2976 seconds
#
# Revision: 1
# Processed by: cddbd v1.5.2PL0 Copyright (c) Steve Scherf et al.
# Submitted via: audiograbber 1.83.01
#
DISCID=bc0b9e0e
DTITLE=Various Artist - SD055
DYEAR=1900
DGENRE=Country
TTITLE0=Garth Brooks - You Move Me
TTITLE1=Faith Hill - Let Me Let Go
TTITLE2=Alabama - How Do You Fall In Love
TTITLE3=George Strait - We Really Shouldn't Be Doing This
TTITLE4=Terri Clark - You're Easy On The Eyes
TTITLE5=Collin Raye - Someone You Used To Know
TTITLE6=Travis Tritt - If I Lost You
TTITLE7=Lee Ann Womack - A Little Past Little Rock
TTITLE8=Clay Walker - You're Beginning To Get To Me
TTITLE9=Pam Tillis - Every Time
TTITLE10=Davis Kersh - Something To Think About
TTITLE11=Billy Dean - Real Man
TTITLE12=Blackhawk - There You Have It
TTITLE13=Danni Leigh - If The Jukebox Took Teardrops
EXTD=
EXTT0=
EXTT1=
EXTT2=
EXTT3=
EXTT4=
EXTT5=
EXTT6=
EXTT7=
EXTT8=
EXTT9=
EXTT10=
EXTT11=
EXTT12=
EXTT13=
PLAYORDER=
